<svg width="72" height="72" viewBox="0 0 72 72" fill="none" xmlns="http://www.w3.org/2000/svg">
<g clip-path="url(#clip0_1_396)">
<path d="M68.4 16.8H48C48 15.276 48.156 14.148 47.136 12.948L41.232 6.06C40.8884 5.67578 40.4664 5.36981 39.9944 5.16278C39.5223 4.95576 39.0114 4.8525 38.496 4.86H34.8C33.8452 4.86 32.9295 5.23928 32.2544 5.91442C31.5793 6.58955 31.2 7.50522 31.2 8.46V16.86H24V12C24 5.3724 18.6276 0 12 0C5.3724 0 0 5.3724 0 12V60C0 66.6276 5.3724 72 12 72H68.4C69.3548 72 70.2705 71.6207 70.9456 70.9456C71.6207 70.2705 72 69.3548 72 68.4V20.4C72 19.4452 71.6207 18.5295 70.9456 17.8544C70.2705 17.1793 69.3548 16.8 68.4 16.8ZM60 58.8H57.6V54C57.6 53.0452 57.2207 52.1295 56.5456 51.4544C55.8705 50.7793 54.9548 50.4 54 50.4C53.0452 50.4 52.1295 50.7793 51.4544 51.4544C50.7793 52.1295 50.4 53.0452 50.4 54V58.8H48V36C48 35.6817 48.1264 35.3765 48.3515 35.1515C48.5765 34.9264 48.8817 34.8 49.2 34.8H58.8C59.1183 34.8 59.4235 34.9264 59.6485 35.1515C59.8736 35.3765 60 35.6817 60 36V58.8ZM55.2 58.8H52.8V54C52.8 53.6817 52.9264 53.3765 53.1515 53.1515C53.3765 52.9264 53.6817 52.8 54 52.8C54.3183 52.8 54.6235 52.9264 54.8485 53.1515C55.0736 53.3765 55.2 53.6817 55.2 54V58.8ZM34.8 7.2H38.496C38.6693 7.19999 38.8406 7.23753 38.998 7.31003C39.1555 7.38253 39.2953 7.48828 39.408 7.62C45.768 15.048 45.6 14.676 45.6 15.288V58.8H43.2V54C43.2 53.0452 42.8207 52.1295 42.1456 51.4544C41.4705 50.7793 40.5548 50.4 39.6 50.4C38.6452 50.4 37.7295 50.7793 37.0544 51.4544C36.3793 52.1295 36 53.0452 36 54V58.8H33.6V49.2H38.4C38.7183 49.2 39.0235 49.0736 39.2485 48.8485C39.4736 48.6235 39.6 48.3183 39.6 48C39.6 47.6817 39.4736 47.3765 39.2485 47.1515C39.0235 46.9264 38.7183 46.8 38.4 46.8H33.6V44.4H38.4C38.7183 44.4 39.0235 44.2736 39.2485 44.0485C39.4736 43.8235 39.6 43.5183 39.6 43.2C39.6 42.8817 39.4736 42.5765 39.2485 42.3515C39.0235 42.1264 38.7183 42 38.4 42H33.6V39.6H38.4C38.7183 39.6 39.0235 39.4736 39.2485 39.2485C39.4736 39.0235 39.6 38.7183 39.6 38.4C39.6 38.0817 39.4736 37.7765 39.2485 37.5515C39.0235 37.3264 38.7183 37.2 38.4 37.2H33.6V34.8H38.4C38.7183 34.8 39.0235 34.6736 39.2485 34.4485C39.4736 34.2235 39.6 33.9183 39.6 33.6C39.6 33.2817 39.4736 32.9765 39.2485 32.7515C39.0235 32.5264 38.7183 32.4 38.4 32.4H33.6V30H38.4C38.7183 30 39.0235 29.8736 39.2485 29.6485C39.4736 29.4235 39.6 29.1183 39.6 28.8C39.6 28.4817 39.4736 28.1765 39.2485 27.9515C39.0235 27.7264 38.7183 27.6 38.4 27.6H33.6V25.2H38.4C38.7183 25.2 39.0235 25.0736 39.2485 24.8485C39.4736 24.6235 39.6 24.3183 39.6 24C39.6 23.6817 39.4736 23.3765 39.2485 23.1515C39.0235 22.9264 38.7183 22.8 38.4 22.8H33.6V20.4H38.4C38.7183 20.4 39.0235 20.2736 39.2485 20.0485C39.4736 19.8235 39.6 19.5183 39.6 19.2C39.6 18.8817 39.4736 18.5765 39.2485 18.3515C39.0235 18.1264 38.7183 18 38.4 18H33.6V15.6H38.4C38.7183 15.6 39.0235 15.4736 39.2485 15.2485C39.4736 15.0235 39.6 14.7183 39.6 14.4C39.6 14.0817 39.4736 13.7765 39.2485 13.5515C39.0235 13.3264 38.7183 13.2 38.4 13.2H33.6V8.4C33.6 8.08174 33.7264 7.77652 33.9515 7.55147C34.1765 7.32643 34.4817 7.2 34.8 7.2ZM40.8 58.8H38.4V54C38.4 53.6817 38.5264 53.3765 38.7515 53.1515C38.9765 52.9264 39.2817 52.8 39.6 52.8C39.9183 52.8 40.2235 52.9264 40.4485 53.1515C40.6736 53.3765 40.8 53.6817 40.8 54V58.8ZM2.4 12C2.4 9.45392 3.41143 7.01212 5.21178 5.21178C7.01212 3.41143 9.45392 2.4 12 2.4C14.5461 2.4 16.9879 3.41143 18.7882 5.21178C20.5886 7.01212 21.6 9.45392 21.6 12V52.8C20.4757 51.3145 19.021 50.1112 17.3511 49.2853C15.6812 48.4595 13.8419 48.0338 11.979 48.0419C10.1161 48.0501 8.28058 48.4919 6.61796 49.3323C4.95534 50.1727 3.51123 51.3887 2.4 52.884V12ZM69.6 68.4C69.6 68.7183 69.4736 69.0235 69.2485 69.2485C69.0235 69.4736 68.7183 69.6 68.4 69.6H12C10.1013 69.6 8.24524 69.037 6.66653 67.9821C5.08781 66.9272 3.85736 65.4279 3.13076 63.6738C2.40416 61.9196 2.21404 59.9894 2.58446 58.1271C2.95488 56.2649 3.86919 54.5544 5.21178 53.2118C6.55436 51.8692 8.26492 50.9549 10.1271 50.5845C11.9894 50.214 13.9196 50.4042 15.6738 51.1308C17.4279 51.8574 18.9272 53.0878 19.9821 54.6665C21.037 56.2452 21.6 58.1013 21.6 60C21.6 60.3183 21.7264 60.6235 21.9515 60.8485C22.1765 61.0736 22.4817 61.2 22.8 61.2C23.1183 61.2 23.4235 61.0736 23.6485 60.8485C23.8736 60.6235 24 60.3183 24 60V19.2H31.2V58.8H28.8C28.4817 58.8 28.1765 58.9264 27.9515 59.1515C27.7264 59.3765 27.6 59.6817 27.6 60C27.6 60.3183 27.7264 60.6235 27.9515 60.8485C28.1765 61.0736 28.4817 61.2 28.8 61.2H64.8C65.1183 61.2 65.4235 61.0736 65.6485 60.8485C65.8736 60.6235 66 60.3183 66 60C66 59.6817 65.8736 59.3765 65.6485 59.1515C65.4235 58.9264 65.1183 58.8 64.8 58.8H62.4V36C62.4 35.0452 62.0207 34.1295 61.3456 33.4544C60.6705 32.7793 59.7548 32.4 58.8 32.4C48.456 32.4 48.864 32.316 48 32.616V19.2H68.4C68.7183 19.2 69.0235 19.3264 69.2485 19.5515C69.4736 19.7765 69.6 20.0817 69.6 20.4V68.4Z" fill="black"/>
<path d="M51.6001 37.1999H50.4001C50.0818 37.1999 49.7766 37.3263 49.5515 37.5514C49.3265 37.7764 49.2001 38.0816 49.2001 38.3999C49.2001 38.7182 49.3265 39.0234 49.5515 39.2484C49.7766 39.4735 50.0818 39.5999 50.4001 39.5999H51.6001C51.9183 39.5999 52.2235 39.4735 52.4486 39.2484C52.6736 39.0234 52.8001 38.7182 52.8001 38.3999C52.8001 38.0816 52.6736 37.7764 52.4486 37.5514C52.2235 37.3263 51.9183 37.1999 51.6001 37.1999ZM57.6001 37.1999H56.4001C56.0818 37.1999 55.7766 37.3263 55.5515 37.5514C55.3265 37.7764 55.2001 38.0816 55.2001 38.3999C55.2001 38.7182 55.3265 39.0234 55.5515 39.2484C55.7766 39.4735 56.0818 39.5999 56.4001 39.5999H57.6001C57.9183 39.5999 58.2235 39.4735 58.4486 39.2484C58.6736 39.0234 58.8001 38.7182 58.8001 38.3999C58.8001 38.0816 58.6736 37.7764 58.4486 37.5514C58.2235 37.3263 57.9183 37.1999 57.6001 37.1999ZM51.6001 41.9999H50.4001C50.0818 41.9999 49.7766 42.1263 49.5515 42.3514C49.3265 42.5764 49.2001 42.8816 49.2001 43.1999C49.2001 43.5182 49.3265 43.8234 49.5515 44.0484C49.7766 44.2735 50.0818 44.3999 50.4001 44.3999H51.6001C51.9183 44.3999 52.2235 44.2735 52.4486 44.0484C52.6736 43.8234 52.8001 43.5182 52.8001 43.1999C52.8001 42.8816 52.6736 42.5764 52.4486 42.3514C52.2235 42.1263 51.9183 41.9999 51.6001 41.9999ZM57.6001 41.9999H56.4001C56.0818 41.9999 55.7766 42.1263 55.5515 42.3514C55.3265 42.5764 55.2001 42.8816 55.2001 43.1999C55.2001 43.5182 55.3265 43.8234 55.5515 44.0484C55.7766 44.2735 56.0818 44.3999 56.4001 44.3999H57.6001C57.9183 44.3999 58.2235 44.2735 58.4486 44.0484C58.6736 43.8234 58.8001 43.5182 58.8001 43.1999C58.8001 42.8816 58.6736 42.5764 58.4486 42.3514C58.2235 42.1263 57.9183 41.9999 57.6001 41.9999ZM51.6001 46.7999H50.4001C50.0818 46.7999 49.7766 46.9263 49.5515 47.1514C49.3265 47.3764 49.2001 47.6816 49.2001 47.9999C49.2001 48.3182 49.3265 48.6234 49.5515 48.8484C49.7766 49.0735 50.0818 49.1999 50.4001 49.1999H51.6001C51.9183 49.1999 52.2235 49.0735 52.4486 48.8484C52.6736 48.6234 52.8001 48.3182 52.8001 47.9999C52.8001 47.6816 52.6736 47.3764 52.4486 47.1514C52.2235 46.9263 51.9183 46.7999 51.6001 46.7999ZM57.6001 46.7999H56.4001C56.0818 46.7999 55.7766 46.9263 55.5515 47.1514C55.3265 47.3764 55.2001 47.6816 55.2001 47.9999C55.2001 48.3182 55.3265 48.6234 55.5515 48.8484C55.7766 49.0735 56.0818 49.1999 56.4001 49.1999H57.6001C57.9183 49.1999 58.2235 49.0735 58.4486 48.8484C58.6736 48.6234 58.8001 48.3182 58.8001 47.9999C58.8001 47.6816 58.6736 47.3764 58.4486 47.1514C58.2235 46.9263 57.9183 46.7999 57.6001 46.7999ZM37.2001 63.5999H27.6001C27.2818 63.5999 26.9766 63.7263 26.7515 63.9514C26.5265 64.1764 26.4001 64.4816 26.4001 64.7999C26.4001 65.1182 26.5265 65.4234 26.7515 65.6484C26.9766 65.8735 27.2818 65.9999 27.6001 65.9999H37.2001C37.5183 65.9999 37.8235 65.8735 38.0486 65.6484C38.2736 65.4234 38.4001 65.1182 38.4001 64.7999C38.4001 64.4816 38.2736 64.1764 38.0486 63.9514C37.8235 63.7263 37.5183 63.5999 37.2001 63.5999ZM66.0001 63.5999H42.0001C41.6818 63.5999 41.3766 63.7263 41.1515 63.9514C40.9265 64.1764 40.8001 64.4816 40.8001 64.7999C40.8001 65.1182 40.9265 65.4234 41.1515 65.6484C41.3766 65.8735 41.6818 65.9999 42.0001 65.9999H66.0001C66.3183 65.9999 66.6235 65.8735 66.8486 65.6484C67.0736 65.4234 67.2001 65.1182 67.2001 64.7999C67.2001 64.4816 67.0736 64.1764 66.8486 63.9514C66.6235 63.7263 66.3183 63.5999 66.0001 63.5999ZM6.00005 13.1999C6.31831 13.1999 6.62353 13.0735 6.84858 12.8484C7.07362 12.6234 7.20005 12.3182 7.20005 11.9999V9.5999C7.20005 9.28164 7.07362 8.97642 6.84858 8.75137C6.62353 8.52633 6.31831 8.3999 6.00005 8.3999C5.68179 8.3999 5.37656 8.52633 5.15152 8.75137C4.92648 8.97642 4.80005 9.28164 4.80005 9.5999V11.9999C4.80005 12.3182 4.92648 12.6234 5.15152 12.8484C5.37656 13.0735 5.68179 13.1999 6.00005 13.1999ZM6.00005 45.5999C6.31831 45.5999 6.62353 45.4735 6.84858 45.2484C7.07362 45.0234 7.20005 44.7182 7.20005 44.3999V16.7999C7.20005 16.4816 7.07362 16.1764 6.84858 15.9514C6.62353 15.7263 6.31831 15.5999 6.00005 15.5999C5.68179 15.5999 5.37656 15.7263 5.15152 15.9514C4.92648 16.1764 4.80005 16.4816 4.80005 16.7999V44.3999C4.80005 44.7182 4.92648 45.0234 5.15152 45.2484C5.37656 45.4735 5.68179 45.5999 6.00005 45.5999Z" fill="#384D8B"/>
</g>
<defs>
<clipPath id="clip0_1_396">
<rect width="72" height="72" fill="white"/>
</clipPath>
</defs>
</svg>
