<svg width="40" height="40" viewBox="0 0 40 40" fill="none" xmlns="http://www.w3.org/2000/svg">
<path fill-rule="evenodd" clip-rule="evenodd" d="M31.6083 27.6837L29.6533 25.7287C28.6766 24.752 27.0933 24.752 26.1183 25.7287L24.5816 27.2654C24.2383 27.6087 23.7183 27.7237 23.275 27.5287C21.0483 26.5537 18.8483 25.0754 16.8866 23.1137C14.9333 21.1604 13.46 18.9704 12.4833 16.752C12.28 16.2937 12.3983 15.7554 12.7533 15.4004L14.13 14.0237C15.2483 12.9054 15.2483 11.3237 14.2716 10.347L12.3166 8.39202C11.015 7.09035 8.90496 7.09035 7.60329 8.39202L6.51663 9.47702C5.28163 10.712 4.76663 12.4937 5.09996 14.2604C5.92329 18.6154 8.45329 23.3837 12.535 27.4654C16.6166 31.547 21.385 34.077 25.74 34.9004C27.5066 35.2337 29.2883 34.7187 30.5233 33.4837L31.6083 32.3987C32.91 31.097 32.91 28.987 31.6083 27.6837V27.6837Z" fill="white"/>
<path d="M21.6666 11.652C23.385 11.6287 25.1116 12.2653 26.4233 13.577" stroke="white" stroke-width="1.5" stroke-linecap="round" stroke-linejoin="round"/>
<path d="M31.1366 8.86352C28.5216 6.24852 25.0933 4.94019 21.6666 4.94019" stroke="white" stroke-width="1.5" stroke-linecap="round" stroke-linejoin="round"/>
<path d="M28.3483 18.3336C28.3717 16.6152 27.735 14.8886 26.4233 13.5769" stroke="white" stroke-width="1.5" stroke-linecap="round" stroke-linejoin="round"/>
<path d="M31.1365 8.86353C33.7515 11.4785 35.0598 14.9069 35.0598 18.3335" stroke="white" stroke-width="1.5" stroke-linecap="round" stroke-linejoin="round"/>
</svg>
