<svg width="24" height="23" viewBox="0 0 24 23" fill="none" xmlns="http://www.w3.org/2000/svg">
<path d="M18.4997 8.86007C22.1446 10.318 22.1446 12.6818 18.4997 14.1398C14.8548 15.5978 8.94529 15.5978 5.30044 14.1398C1.65555 12.6818 1.65555 10.318 5.30044 8.86007C8.94533 7.40211 14.8549 7.40211 18.4997 8.86007" stroke="white" stroke-width="1.4" stroke-linecap="round" stroke-linejoin="round"/>
<path d="M14.5399 4.90042C15.9979 8.54531 15.9979 14.4549 14.5399 18.0997C13.082 21.7446 10.7182 21.7446 9.26022 18.0997C7.80226 14.4548 7.80226 8.54527 9.26022 4.90042C10.7182 1.25553 13.082 1.25553 14.5399 4.90042" stroke="white" stroke-width="1.4" stroke-linecap="round" stroke-linejoin="round"/>
<path d="M18.4997 4.90042C22.1446 8.54531 22.1446 14.4549 18.4997 18.0997C14.8548 21.7446 8.94529 21.7446 5.30044 18.0997C1.65555 14.4548 1.65555 8.54527 5.30044 4.90042C8.94533 1.25553 14.8549 1.25553 18.4997 4.90042" stroke="white" stroke-width="1.4" stroke-linecap="round" stroke-linejoin="round"/>
</svg>
