<svg width="32" height="32" viewBox="0 0 32 32" fill="none" xmlns="http://www.w3.org/2000/svg">
<path d="M18.6667 21.3507V27.3334C18.6667 27.7014 18.952 28 19.3054 28H26.0294C26.3814 28 26.6667 27.7014 26.6667 27.3334V21.3147" stroke="black" stroke-width="2.3994" stroke-linecap="round" stroke-linejoin="round"/>
<path d="M17.3339 22.2227L22.7766 18.6667L28.0006 22.2227" stroke="black" stroke-width="2.3994" stroke-linecap="round" stroke-linejoin="round"/>
<path fill-rule="evenodd" clip-rule="evenodd" d="M13.9412 17.156C15.7696 17.156 17.2519 15.6738 17.2519 13.8453C17.2519 12.0169 15.7696 10.5347 13.9412 10.5347C12.1128 10.5347 10.6305 12.0169 10.6305 13.8453C10.6305 15.6738 12.1128 17.156 13.9412 17.156Z" stroke="black" stroke-width="2.3994" stroke-linecap="round" stroke-linejoin="round"/>
<path d="M23.852 14.5653C24.0253 11.8173 23.0706 9.012 20.9706 6.912C17.088 3.02933 10.7947 3.02933 6.91198 6.912C3.02932 10.7947 3.02932 17.088 6.91198 20.9707L13.9413 28" stroke="black" stroke-width="2.3994" stroke-linecap="round" stroke-linejoin="round"/>
</svg>
