<svg width="24" height="24" viewBox="0 0 24 24" fill="none" xmlns="http://www.w3.org/2000/svg">
<path fill-rule="evenodd" clip-rule="evenodd" d="M17.6569 5.35098V5.35098C20.7811 8.48993 20.7811 13.5636 17.6569 16.7025V16.7025L14.345 20.0254C13.056 21.3205 10.9611 21.3254 9.666 20.0364L9.655 20.0254L6.34313 16.7025C3.21898 13.5635 3.21895 8.48998 6.34307 5.35098V5.35098C9.45255 2.22678 14.5059 2.21485 17.6301 5.32433L17.6568 5.35098H17.6569Z" stroke="white" stroke-width="1.5" stroke-linecap="round" stroke-linejoin="round"/>
<path fill-rule="evenodd" clip-rule="evenodd" d="M15 10.6287V13C15 13.5523 14.5523 14 14 14H10C9.44772 14 9 13.5523 9 13V10.5711C9 10.2673 9.1381 9.98002 9.37532 9.79025L11.3393 8.21912C11.7045 7.92696 12.2235 7.92696 12.5887 8.21912L14.6247 9.84787C14.8619 10.0376 15 10.325 15 10.6287Z" fill="white"/>
</svg>
