<svg width="32" height="32" viewBox="0 0 32 32" fill="none" xmlns="http://www.w3.org/2000/svg">
<path fill-rule="evenodd" clip-rule="evenodd" d="M25.2867 22.147L23.7227 20.583C22.9413 19.8016 21.6747 19.8016 20.8947 20.583L19.6653 21.8123C19.3907 22.087 18.9747 22.179 18.62 22.023C16.8387 21.243 15.0787 20.0603 13.5093 18.491C11.9467 16.9283 10.768 15.1763 9.98666 13.4016C9.82399 13.035 9.91866 12.6043 10.2027 12.3203L11.304 11.219C12.1987 10.3243 12.1987 9.05895 11.4173 8.27762L9.85333 6.71362C8.81199 5.67228 7.12399 5.67228 6.08266 6.71362L5.21333 7.58162C4.22533 8.56962 3.81333 9.99495 4.07999 11.4083C4.73866 14.8923 6.76266 18.707 10.028 21.9723C13.2933 25.2376 17.108 27.2616 20.592 27.9203C22.0053 28.187 23.4307 27.775 24.4187 26.787L25.2867 25.919C26.328 24.8776 26.328 23.1896 25.2867 22.147V22.147Z" stroke="white" stroke-width="1.5" stroke-linecap="round" stroke-linejoin="round"/>
<path d="M17.3333 9.32154C18.708 9.30287 20.0893 9.81221 21.1386 10.8615" stroke="white" stroke-width="1.5" stroke-linecap="round" stroke-linejoin="round"/>
<path d="M24.9093 7.09082C22.8173 4.99882 20.0746 3.95215 17.3333 3.95215" stroke="white" stroke-width="1.5" stroke-linecap="round" stroke-linejoin="round"/>
<path d="M22.6787 14.6669C22.6973 13.2922 22.188 11.9109 21.1387 10.8616" stroke="white" stroke-width="1.5" stroke-linecap="round" stroke-linejoin="round"/>
<path d="M24.9092 7.09082C27.0012 9.18282 28.0479 11.9255 28.0479 14.6668" stroke="white" stroke-width="1.5" stroke-linecap="round" stroke-linejoin="round"/>
</svg>
